<svg width="112" height="112" viewBox="0 0 112 112" fill="none" xmlns="http://www.w3.org/2000/svg">
<path d="M42.6812 57.3674C40.9306 55.6167 39.947 53.2422 39.947 50.7664C39.947 48.2905 40.9306 45.9161 42.6812 44.1654C44.4319 42.4147 46.8064 41.4312 49.2822 41.4312C51.7581 41.4312 54.1326 42.4147 55.8832 44.1654L55.9999 44.2867L56.1166 44.1654C56.9834 43.2985 58.0125 42.6109 59.1451 42.1418C60.2777 41.6726 61.4917 41.4312 62.7176 41.4312C63.9435 41.4312 65.1574 41.6726 66.29 42.1418C67.4226 42.6109 68.4517 43.2985 69.3186 44.1654C70.1854 45.0322 70.8731 46.0613 71.3422 47.1939C71.8113 48.3265 72.0528 49.5405 72.0528 50.7664C72.0528 51.9923 71.8113 53.2062 71.3422 54.3388C70.8731 55.4714 70.1854 56.5005 69.3186 57.3674L56.1166 70.5647L55.9999 70.448L55.8832 70.5647L42.6812 57.3674Z" fill="#FF0062"/>
<path fill-rule="evenodd" clip-rule="evenodd" d="M14 18.6665C14 14.9535 15.475 11.3925 18.1005 8.76701C20.726 6.1415 24.287 4.6665 28 4.6665H84C87.713 4.6665 91.274 6.1415 93.8995 8.76701C96.525 11.3925 98 14.9535 98 18.6665V93.3332C98 97.0462 96.525 100.607 93.8995 103.233C91.274 105.858 87.713 107.333 84 107.333H28C24.287 107.333 20.726 105.858 18.1005 103.233C15.475 100.607 14 97.0462 14 93.3332V18.6665ZM28 13.9998H84C85.2377 13.9998 86.4247 14.4915 87.2998 15.3667C88.175 16.2418 88.6667 17.4288 88.6667 18.6665V93.3332C88.6667 94.5708 88.175 95.7578 87.2998 96.633C86.4247 97.5082 85.2377 97.9998 84 97.9998H28C26.7623 97.9998 25.5753 97.5082 24.7002 96.633C23.825 95.7578 23.3333 94.5708 23.3333 93.3332V18.6665C23.3333 17.4288 23.825 16.2418 24.7002 15.3667C25.5753 14.4915 26.7623 13.9998 28 13.9998Z" fill="#FF0062"/>
</svg>
